<?xml version="1.0" encoding="UTF-8"?>
<svg version="1.1" xmlns="http://www.w3.org/2000/svg" width="512" height="512">
<path d="M0 0 C0.83402344 0.66128906 1.66804688 1.32257813 2.52734375 2.00390625 C18.75052039 15.01503357 34.1924654 29.59736797 47 46 C47.65097656 46.79535156 48.30195313 47.59070313 48.97265625 48.41015625 C57.06178282 58.30044023 64.34335892 68.71835997 71.1875 79.5 C71.68161377 80.25345703 72.17572754 81.00691406 72.68481445 81.78320312 C74.67519066 84.98612381 75.96287989 87.16807282 76.1328125 90.9765625 C74.50941722 95.30934853 72.20872567 99.00857109 69.6875 102.875 C69.15133057 103.70854004 68.61516113 104.54208008 68.06274414 105.40087891 C59.63456096 118.34402837 50.15395523 130.37781685 40 142 C39.28714844 142.825 38.57429688 143.65 37.83984375 144.5 C28.61525766 154.98326793 18.79082368 165.19787386 7.77514648 173.80981445 C5.10068203 175.92054029 2.48588833 178.08949672 -0.12890625 180.2734375 C-55.49954792 225.60368462 -130.41395745 246.73479937 -201.32714844 239.66845703 C-255.00903331 233.80423777 -305.72635674 213.71447077 -348 180 C-348.93328125 179.26394531 -349.8665625 178.52789062 -350.828125 177.76953125 C-366.91678741 164.76885405 -382.25900171 150.31741886 -395 134 C-395.65097656 133.20464844 -396.30195313 132.40929687 -396.97265625 131.58984375 C-405.06178282 121.69955977 -412.34335892 111.28164003 -419.1875 100.5 C-419.68161377 99.74654297 -420.17572754 98.99308594 -420.68481445 98.21679688 C-422.67519066 95.01387619 -423.96287989 92.83192718 -424.1328125 89.0234375 C-422.50941722 84.69065147 -420.20872567 80.99142891 -417.6875 77.125 C-417.15133057 76.29145996 -416.61516113 75.45791992 -416.06274414 74.59912109 C-407.63456096 61.65597163 -398.15395523 49.62218315 -388 38 C-387.28714844 37.175 -386.57429688 36.35 -385.83984375 35.5 C-375.76454111 24.04993644 -364.99073047 13.42128823 -353 4 C-352.21367187 3.32324219 -351.42734375 2.64648438 -350.6171875 1.94921875 C-332.85136368 -13.28260826 -312.03463792 -24.94603327 -291 -35 C-290.39559082 -35.29229492 -289.79118164 -35.58458984 -289.16845703 -35.88574219 C-197.61638123 -79.70084204 -83.95162779 -64.64514418 0 0 Z " fill="#63CEF0" transform="translate(430,166)"/>
<path d="M0 0 C0.83402344 0.66128906 1.66804688 1.32257813 2.52734375 2.00390625 C18.75052039 15.01503357 34.1924654 29.59736797 47 46 C47.65097656 46.79535156 48.30195313 47.59070313 48.97265625 48.41015625 C57.06178282 58.30044023 64.34335892 68.71835997 71.1875 79.5 C71.68161377 80.25345703 72.17572754 81.00691406 72.68481445 81.78320312 C74.67519066 84.98612381 75.96287989 87.16807282 76.1328125 90.9765625 C74.50941722 95.30934853 72.20872567 99.00857109 69.6875 102.875 C69.15133057 103.70854004 68.61516113 104.54208008 68.06274414 105.40087891 C59.63456096 118.34402837 50.15395523 130.37781685 40 142 C39.28714844 142.825 38.57429688 143.65 37.83984375 144.5 C28.61525766 154.98326793 18.79082368 165.19787386 7.77514648 173.80981445 C5.10068203 175.92054029 2.48588833 178.08949672 -0.12890625 180.2734375 C-55.49954792 225.60368462 -130.41395745 246.73479937 -201.32714844 239.66845703 C-255.00903331 233.80423777 -305.72635674 213.71447077 -348 180 C-348.93328125 179.26394531 -349.8665625 178.52789062 -350.828125 177.76953125 C-366.91678741 164.76885405 -382.25900171 150.31741886 -395 134 C-395.65097656 133.20464844 -396.30195313 132.40929687 -396.97265625 131.58984375 C-405.06178282 121.69955977 -412.34335892 111.28164003 -419.1875 100.5 C-419.68161377 99.74654297 -420.17572754 98.99308594 -420.68481445 98.21679688 C-422.67519066 95.01387619 -423.96287989 92.83192718 -424.1328125 89.0234375 C-422.50941722 84.69065147 -420.20872567 80.99142891 -417.6875 77.125 C-417.15133057 76.29145996 -416.61516113 75.45791992 -416.06274414 74.59912109 C-407.63456096 61.65597163 -398.15395523 49.62218315 -388 38 C-387.28714844 37.175 -386.57429688 36.35 -385.83984375 35.5 C-375.76454111 24.04993644 -364.99073047 13.42128823 -353 4 C-352.21367187 3.32324219 -351.42734375 2.64648438 -350.6171875 1.94921875 C-332.85136368 -13.28260826 -312.03463792 -24.94603327 -291 -35 C-290.39559082 -35.29229492 -289.79118164 -35.58458984 -289.16845703 -35.88574219 C-197.61638123 -79.70084204 -83.95162779 -64.64514418 0 0 Z M-205 -54 C-206.4083039 -53.71342824 -207.81703356 -53.42892173 -209.2265625 -53.1484375 C-226.91108945 -49.12368309 -243.16436901 -41.34826019 -258 -31 C-258.55558594 -30.6179541 -259.11117187 -30.2359082 -259.68359375 -29.84228516 C-275.68977608 -18.68689729 -288.56617502 -4.39658662 -299 12 C-299.38091797 12.58958496 -299.76183594 13.17916992 -300.15429688 13.78662109 C-312.9765329 33.89527244 -320.56247618 58.15495195 -321 82 C-321.08571102 83.74610488 -321.17167031 85.49219759 -321.2578125 87.23828125 C-322.08028551 109.43388767 -317.18800044 130.82402559 -308 151 C-307.72043457 151.62648438 -307.44086914 152.25296875 -307.15283203 152.8984375 C-303.03758643 162.00819308 -297.9321722 170.00039826 -292 178 C-291.39800781 178.82757813 -290.79601562 179.65515625 -290.17578125 180.5078125 C-279.56735926 194.45293989 -266.70386447 205.60028567 -252 215 C-251.40896484 215.38236816 -250.81792969 215.76473633 -250.20898438 216.15869141 C-218.56843043 236.33091308 -178.06789549 242.28511849 -141.61962891 234.26220703 C-112.93708221 227.34628114 -88.55108478 213.0919028 -68 192 C-67.43152344 191.47664062 -66.86304688 190.95328125 -66.27734375 190.4140625 C-52.54598357 177.47437119 -42.53684579 159.55547548 -36 142 C-35.69368652 141.20505127 -35.38737305 140.41010254 -35.07177734 139.59106445 C-25.45889314 114.11443092 -23.07875827 83.51752857 -30 57 C-30.17160645 56.31518555 -30.34321289 55.63037109 -30.52001953 54.92480469 C-36.27164485 32.27810126 -46.88144201 11.78031516 -62 -6 C-62.79792969 -6.93972656 -63.59585937 -7.87945312 -64.41796875 -8.84765625 C-79.74944122 -26.342951 -100.19302389 -39.9702995 -122 -48 C-123.65128906 -48.62841797 -123.65128906 -48.62841797 -125.3359375 -49.26953125 C-141.43293099 -55.04838683 -157.3082707 -57.37062235 -174.375 -57.4375 C-175.69298584 -57.4475708 -177.01097168 -57.4576416 -178.36889648 -57.46801758 C-187.63633571 -57.38631252 -196.00846461 -56.06933092 -205 -54 Z " fill="#CDD3D9" transform="translate(430,166)"/>
<path d="M0 0 C-0.33 0.66 -0.66 1.32 -1 2 C-3.16702539 2.54701612 -5.36180957 2.98488804 -7.5625 3.375 C-8.94708769 3.63814779 -10.33119107 3.90385433 -11.71484375 4.171875 C-12.42882324 4.30916016 -13.14280273 4.44644531 -13.87841797 4.58789062 C-33.98689383 8.49388686 -52.1991362 16.26840204 -69 28 C-69.56090332 28.38736328 -70.12180664 28.77472656 -70.69970703 29.17382812 C-86.36110814 40.14376952 -98.73889555 53.94867293 -109 70 C-109.38236816 70.59103516 -109.76473633 71.18207031 -110.15869141 71.79101562 C-122.97804593 91.8984428 -130.56252896 116.15782821 -131 140 C-131.08571102 141.74610488 -131.17167031 143.49219759 -131.2578125 145.23828125 C-132.08028551 167.43388767 -127.18800044 188.82402559 -118 209 C-117.72043457 209.62648438 -117.44086914 210.25296875 -117.15283203 210.8984375 C-113.03794038 220.00740956 -107.93355996 228.00214208 -102 236 C-101.38640625 236.83917969 -100.7728125 237.67835938 -100.140625 238.54296875 C-89.76454889 252.13385476 -77.33125804 262.79720328 -63 272 C-62.40751465 272.38381836 -61.8150293 272.76763672 -61.20458984 273.16308594 C-44.19721472 284.00424516 -23.99141967 291.14542117 -3.95703125 293.50390625 C-2.98121094 293.66761719 -2.00539062 293.83132813 -1 294 C-0.67 294.66 -0.34 295.32 0 296 C-9.97042706 297.47710031 -19.20251226 297.09659332 -29.125 295.375 C-30.16342041 295.19606201 -31.20184082 295.01712402 -32.27172852 294.83276367 C-78.72268734 286.53382438 -122.07625944 267.4477664 -159 238 C-159.93328125 237.26394531 -160.8665625 236.52789062 -161.828125 235.76953125 C-177.91678741 222.76885405 -193.25900171 208.31741886 -206 192 C-206.65097656 191.20464844 -207.30195313 190.40929687 -207.97265625 189.58984375 C-216.06178282 179.69955977 -223.34335892 169.28164003 -230.1875 158.5 C-230.68161377 157.74654297 -231.17572754 156.99308594 -231.68481445 156.21679688 C-233.67519066 153.01387619 -234.96287989 150.83192718 -235.1328125 147.0234375 C-233.50941722 142.69065147 -231.20872567 138.99142891 -228.6875 135.125 C-228.15133057 134.29145996 -227.61516113 133.45791992 -227.06274414 132.59912109 C-218.63456096 119.65597163 -209.15395523 107.62218315 -199 96 C-198.28714844 95.175 -197.57429688 94.35 -196.83984375 93.5 C-186.76454111 82.04993644 -175.99073047 71.42128823 -164 62 C-163.21367187 61.32324219 -162.42734375 60.64648438 -161.6171875 59.94921875 C-143.85136368 44.71739174 -123.03463792 33.05396673 -102 23 C-101.39559082 22.70770508 -100.79118164 22.41541016 -100.16845703 22.11425781 C-70.91736187 8.11523437 -32.76599321 -4.85422122 0 0 Z " fill="#E5E9EE" transform="translate(241,108)"/>
<path d="M0 0 C14.89328256 7.72181946 27.64975089 17.80162165 39.34790039 29.80761719 C40.20061523 30.59265625 40.20061523 30.59265625 41.07055664 31.39355469 C58.06057977 47.40403374 69.14061946 70.26551368 75.59790039 92.37011719 C75.96757935 93.62731567 75.96757935 93.62731567 76.34472656 94.90991211 C86.59365555 131.57294912 80.2105261 171.8920234 61.73461914 204.79980469 C56.25449395 214.19365828 49.80110107 222.69784451 42.35571289 230.62402344 C40.2834147 232.82501466 40.2834147 232.82501466 38.29711914 235.38964844 C25.60979269 251.12803536 4.01675664 262.93342593 -14.65209961 269.80761719 C-15.75295898 270.2265625 -16.85381836 270.64550781 -17.98803711 271.07714844 C-34.31916423 276.9400585 -50.34074531 279.17750607 -67.65209961 279.18261719 C-68.71435257 279.18547226 -68.71435257 279.18547226 -69.79806519 279.18838501 C-71.83316302 279.18776449 -73.86718423 279.16978334 -75.90209961 279.14355469 C-77.08288086 279.12856934 -78.26366211 279.11358398 -79.48022461 279.09814453 C-82.59349734 278.81298485 -84.83949044 278.13263631 -87.65209961 276.80761719 C-87.65209961 276.47761719 -87.65209961 276.14761719 -87.65209961 275.80761719 C-86.61375977 275.56978516 -86.61375977 275.56978516 -85.55444336 275.32714844 C-73.96276025 272.56286037 -62.34458418 269.14522257 -51.65209961 263.80761719 C-50.53448242 263.25460937 -49.41686523 262.70160156 -48.26538086 262.13183594 C-34.05792843 254.92690646 -22.10007405 245.82586286 -10.65209961 234.80761719 C-9.70463867 233.95490234 -9.70463867 233.95490234 -8.73803711 233.08496094 C5.2411987 220.13263581 14.49146682 201.96730045 21.61791992 184.57666016 C22.23412977 183.08333021 22.87958371 181.60211738 23.53149414 180.12402344 C33.19251969 156.6293115 34.15631111 126.29307273 28.34790039 101.80761719 C28.06517833 100.4928287 27.78394323 99.17771964 27.50415039 97.86230469 C21.5309651 70.8904658 7.34075153 47.54121916 -11.65209961 27.80761719 C-12.22057617 27.17597656 -12.78905273 26.54433594 -13.37475586 25.89355469 C-22.84468252 15.67281542 -35.47471234 8.3231934 -47.65209961 1.80761719 C-48.44229492 1.3603125 -49.23249023 0.91300781 -50.04663086 0.45214844 C-55.68224967 -2.59759974 -61.62862031 -4.73637253 -67.65209961 -6.87988281 C-68.48306152 -7.17773682 -69.31402344 -7.47559082 -70.17016602 -7.7824707 C-75.92508861 -9.77455929 -81.65510097 -11.14370552 -87.65209961 -12.19238281 C-71.00290674 -28.84157568 -17.1067639 -8.53150143 0 0 Z " fill="#34BDDD" transform="translate(322.652099609375,124.1923828125)"/>
<path d="M0 0 C-0.309375 0.763125 -0.61875 1.52625 -0.9375 2.3125 C-3.93803698 9.90209354 -4.51550198 19.79442103 -1.75 27.625 C2.41320198 35.65403238 8.49382172 40.09135241 17 43 C26.74296929 44.28708964 34.93195563 41.37869624 43 36 C46.90323714 48.68552071 45.4320553 61.13588939 39.4921875 73.015625 C31.46315644 86.38489532 20.14548193 95.00845673 5 99 C-10.89535813 100.74028804 -23.76722842 98.0327762 -36.5625 88.1015625 C-45.63841147 80.2764978 -52.84963616 69.6076684 -54.30322266 57.4675293 C-54.43631975 54.82477941 -54.46779335 52.20835986 -54.4375 49.5625 C-54.42992676 48.63526123 -54.42235352 47.70802246 -54.41455078 46.75268555 C-54.25393003 40.10568293 -53.45199517 34.78156247 -50 29 C-49.51789063 28.13117188 -49.03578125 27.26234375 -48.5390625 26.3671875 C-47.0973829 23.857055 -45.5812449 21.4239963 -44 19 C-43.4225 18.113125 -42.845 17.22625 -42.25 16.3125 C-30.84223545 4.5878531 -16.07332731 -0.74566982 0 0 Z " fill="#5C6D7D" transform="translate(258,212)"/>
<path d="M0 0 C11.79262919 6.92432936 21.65070523 15.7824779 31.7265625 24.9453125 C33.85545309 26.86936138 36.01419142 28.75145812 38.1875 30.625 C44.66798144 36.2856615 50.41165709 42.46930907 56 49 C56.80179687 49.91265625 57.60359375 50.8253125 58.4296875 51.765625 C65.60671707 60.00110396 72.06792217 68.67351493 78.32861328 77.62109375 C79.46381101 79.2368353 80.60837709 80.84602702 81.76123047 82.44921875 C83.4858386 84.8485077 85.18309598 87.26507528 86.875 89.6875 C87.40536865 90.41735107 87.9357373 91.14720215 88.48217773 91.89916992 C90.83502758 95.33300526 91.9746371 97.28587586 92.125 101.51953125 C90.7192885 105.8684512 88.68992357 109.24331579 86.125 113 C85.63177246 113.73984131 85.13854492 114.47968262 84.63037109 115.24194336 C65.14209473 144.22665182 42.39830453 170.52916062 14.58203125 191.78222656 C11.57712043 194.09526594 8.62910951 196.48189895 5.671875 198.85546875 C4 200 4 200 2 200 C3.4321536 196.69377113 5.45225864 193.98185692 7.63037109 191.12817383 C16.59838623 179.36701793 23.82890212 166.88759732 29 153 C29.45947021 151.8075769 29.45947021 151.8075769 29.92822266 150.59106445 C39.54110686 125.11443092 41.92124173 94.51752857 35 68 C34.74259033 66.97277832 34.74259033 66.97277832 34.47998047 65.92480469 C28.76884929 43.43754466 18.07602253 19.59074283 1.1796875 3.23828125 C0 2 0 2 0 0 Z " fill="#E5E9ED" transform="translate(364,155)"/>
<path d="M0 0 C5.48799297 4.0571948 10.84514153 9.73760033 12.1875 16.6171875 C12.94022477 25.02888676 13.25043039 32.56776011 8.1875 39.6171875 C7.61 40.5040625 7.0325 41.3909375 6.4375 42.3046875 C0.51684958 48.38980043 -6.61267833 51.60434637 -15.0625 52.0546875 C-22.92626502 51.91541101 -30.27245651 48.15723099 -35.8125 42.6171875 C-42.06734179 34.01009751 -42.74763039 26.11022034 -41.8125 15.6171875 C-39.29500124 7.37061446 -32.78798013 2.08198518 -25.6875 -2.3203125 C-17.3530616 -5.35275118 -7.57621766 -4.41115305 0 0 Z " fill="#EBEAEC" transform="translate(295.8125,204.3828125)"/>
<path d="M0 0 C4.50642119 6.75963179 3.77854585 15.78834836 2.3515625 23.5078125 C-0.82086502 35.84503065 -7.51676819 48.14564061 -18.67285156 55.03271484 C-27.81728465 60.15448855 -35.87144204 63.34277712 -46.375 63.125 C-47.20644531 63.11597656 -48.03789062 63.10695313 -48.89453125 63.09765625 C-50.92981337 63.0742622 -52.96494564 63.03839725 -55 63 C-55 62.01 -55 61.02 -55 60 C-53.98292969 59.50693359 -53.98292969 59.50693359 -52.9453125 59.00390625 C-39.27498536 52.01727091 -30.98630302 42.87215004 -25.09765625 28.8515625 C-23.12467001 22.2557399 -23.33888297 14.84900314 -23 8 C-22.2265625 7.90203125 -21.453125 7.8040625 -20.65625 7.703125 C-12.54201968 6.53821075 -6.8489459 4.56596393 0 0 Z " fill="#53626E" transform="translate(300,248)"/>
<path d="M0 0 C5.8042841 1.52744319 7.65180403 5.99326052 10.54296875 10.94921875 C11.61641069 12.838635 12.68530579 14.73064058 13.75 16.625 C14.29591797 17.58728516 14.84183594 18.54957031 15.40429688 19.54101562 C21.10778225 29.61222586 21.10778225 29.61222586 20.5625 35.9375 C19 38.375 19 38.375 16.5625 39.9375 C13.125 40.5 13.125 40.5 9.5625 39.9375 C4.25999931 35.67029232 1.20987611 29.8060776 -2.1875 24 C-2.77660156 23.02353516 -3.36570312 22.04707031 -3.97265625 21.04101562 C-4.53339844 20.09033203 -5.09414063 19.13964844 -5.671875 18.16015625 C-6.17944336 17.30172119 -6.68701172 16.44328613 -7.20996094 15.55883789 C-8.58153436 12.62992306 -9.15593809 10.1547589 -9.4375 6.9375 C-7.3261957 2.29263053 -5.34804459 -0.09723717 0 0 Z " fill="#FFD071" transform="translate(367.4375,439.0625)"/>
<path d="M0 0 C2.64730232 1.6766248 2.93805455 2.75628019 3.71484375 5.8125 C4.04295799 9.48018794 3.55417322 10.69802366 1.6875 13.8125 C1.13835937 14.74578125 0.58921875 15.6790625 0.0234375 16.640625 C-0.64429688 17.74921875 -1.31203125 18.8578125 -2 20 C-2.84409371 21.47227215 -3.68504255 22.94635021 -4.5234375 24.421875 C-5.4106353 25.96922219 -6.29865637 27.51609764 -7.1875 29.0625 C-7.82909058 30.18845581 -7.82909058 30.18845581 -8.48364258 31.3371582 C-8.89509521 32.04187256 -9.30654785 32.74658691 -9.73046875 33.47265625 C-10.09551514 34.10437744 -10.46056152 34.73609863 -10.83666992 35.38696289 C-12 37 -12 37 -15 39 C-18.87338754 39.42255137 -21.11598609 39.56667558 -24.4375 37.4375 C-26.65360383 33.98037803 -26.43147944 32.09703842 -26 28 C-24.58357735 24.51537237 -22.75801131 21.31386539 -20.875 18.0625 C-20.400625 17.20720703 -19.92625 16.35191406 -19.4375 15.47070312 C-9.56800034 -2.01431586 -9.56800034 -2.01431586 0 0 Z " fill="#FFD071" transform="translate(150,440)"/>
<path d="M0 0 C2.9236459 2.5488195 3.84909176 4.19515606 4.5625 8 C3.8274424 11.92030717 2.00071364 13.5819452 -1 16 C-4.55920109 18.40181164 -8.23241648 20.58200241 -11.9375 22.75 C-12.91396484 23.33910156 -13.89042969 23.92820313 -14.89648438 24.53515625 C-15.84716797 25.09589844 -16.79785156 25.65664062 -17.77734375 26.234375 C-18.63577881 26.74194336 -19.49421387 27.24951172 -20.37866211 27.77246094 C-24.26188636 29.59092527 -27.56229757 30.35942561 -31.75 29.3125 C-34.45427154 27.73500827 -35.18361717 27.02061646 -36 24 C-35.89040736 17.86281209 -35.89040736 17.86281209 -33.109375 15.16796875 C-28.67834279 12.07849277 -24.01875153 9.45757289 -19.3125 6.8125 C-17.86907227 5.99362305 -17.86907227 5.99362305 -16.39648438 5.15820312 C-6.16244597 -0.63749441 -6.16244597 -0.63749441 0 0 Z " fill="#FFD071" transform="translate(475,124)"/>
<path d="M0 0 C5.4244638 0.61932854 9.23077606 2.87034864 13.90625 5.578125 C15.18918945 6.2896875 15.18918945 6.2896875 16.49804688 7.015625 C31.32723784 15.38603028 31.32723784 15.38603028 33.09375 21.078125 C32.90878527 26.07217262 32.90878527 26.07217262 30.96875 28.453125 C26.98968596 30.77424569 24.3621652 30.47879116 19.96875 29.453125 C17.02441406 28.01025391 17.02441406 28.01025391 13.984375 26.1796875 C12.88480469 25.5196875 11.78523438 24.8596875 10.65234375 24.1796875 C10.0888623 23.83454102 9.52538086 23.48939453 8.94482422 23.13378906 C7.21650399 22.07675134 5.47838819 21.03749402 3.73828125 20 C-4.76560443 14.85159336 -4.76560443 14.85159336 -7.03125 11.453125 C-7.5170895 7.72835551 -7.27358021 5.89901258 -5.46875 2.578125 C-3.03125 0.453125 -3.03125 0.453125 0 0 Z " fill="#FFD071" transform="translate(40.03125,123.546875)"/>
<path d="M0 0 C1.00321289 0.60408691 2.00642578 1.20817383 3.04003906 1.83056641 C4.68939453 2.82056641 4.68939453 2.82056641 6.37207031 3.83056641 C6.93555176 4.17571289 7.4990332 4.52085937 8.07958984 4.87646484 C9.80791008 5.93350256 11.54602587 6.97275988 13.28613281 8.01025391 C21.79001849 13.15866055 21.79001849 13.15866055 24.05566406 16.55712891 C24.49316406 19.43212891 24.49316406 19.43212891 24.05566406 22.55712891 C21.77029414 25.64909998 20.34149648 27.3297561 16.49316406 28.01025391 C11.40980174 27.34017433 7.58700743 24.95939271 3.18066406 22.43212891 C2.32085937 21.95775391 1.46105469 21.48337891 0.57519531 20.99462891 C-14.19103823 12.70402737 -14.19103823 12.70402737 -16.19433594 6.99462891 C-15.89268539 2.84693389 -14.93868779 1.38512788 -11.94433594 -1.44287109 C-7.41458026 -2.95278965 -4.2417493 -2.07866819 0 0 Z " fill="#FFD071" transform="translate(454.9443359375,360.44287109375)"/>
<path d="M0 0 C2.4375 2.125 2.4375 2.125 4 5 C4.0625 8.5625 4.0625 8.5625 3 12 C-1.50856711 16.34158315 -7.26805889 19.14159039 -12.6875 22.1875 C-13.64978516 22.73341797 -14.61207031 23.27933594 -15.60351562 23.84179688 C-25.79347586 29.61253225 -25.79347586 29.61253225 -31 29 C-34.32274404 26.54405875 -35.77618008 25.0743356 -36.625 21 C-35.62153982 16.18339111 -32.52650892 14.00967881 -28.57568359 11.39648438 C-25.69854687 9.63826232 -22.79529607 7.93551459 -19.875 6.25 C-18.87339844 5.66089844 -17.87179688 5.07179688 -16.83984375 4.46484375 C-6.17269329 -1.76362665 -6.17269329 -1.76362665 0 0 Z " fill="#FFD071" transform="translate(69,359)"/>
<path d="M0 0 C2.875 1.5625 2.875 1.5625 5 4 C6.01579347 10.79530807 3.16173519 15.26234714 -0.125 20.9375 C-0.599375 21.79279297 -1.07375 22.64808594 -1.5625 23.52929688 C-9.87393321 38.25401165 -9.87393321 38.25401165 -15.5625 40.25 C-19.78125623 39.94318136 -21.23013296 39.17720043 -24 36 C-24.87712569 32.78240324 -25.27900572 30.77389369 -24.13671875 27.60546875 C-23.65847656 26.80753906 -23.18023437 26.00960937 -22.6875 25.1875 C-22.13835937 24.25421875 -21.58921875 23.3209375 -21.0234375 22.359375 C-20.35570312 21.25078125 -19.68796875 20.1421875 -19 19 C-18.15590629 17.52772785 -17.31495745 16.05364979 -16.4765625 14.578125 C-15.5893647 13.03077781 -14.70134363 11.48390236 -13.8125 9.9375 C-13.17090942 8.81154419 -13.17090942 8.81154419 -12.51635742 7.6628418 C-12.10490479 6.95812744 -11.69345215 6.25341309 -11.26953125 5.52734375 C-10.90448486 4.89562256 -10.53943848 4.26390137 -10.16333008 3.61303711 C-7.36345257 -0.26918549 -4.45621028 -0.53474523 0 0 Z " fill="#FFD071" transform="translate(383,33)"/>
<path d="M0 0 C5.28023856 4.31522945 8.3433995 10.11565803 11.75 15.9375 C12.33910156 16.91396484 12.92820313 17.89042969 13.53515625 18.89648438 C14.09589844 19.84716797 14.65664062 20.79785156 15.234375 21.77734375 C15.74194336 22.63577881 16.24951172 23.49421387 16.77246094 24.37866211 C18.14403436 27.30757694 18.71843809 29.7827411 19 33 C17.39588152 36.52906067 16.25840638 37.82772908 13 40 C6.86271511 39.888413 6.86271511 39.888413 4.1640625 37.109375 C1.07896019 32.67662872 -1.54293272 28.01785191 -4.1875 23.3125 C-5.00637695 21.86907227 -5.00637695 21.86907227 -5.84179688 20.39648438 C-11.63749441 10.16244597 -11.63749441 10.16244597 -11 4 C-7.70503051 0.22047618 -4.94820177 -0.92778783 0 0 Z " fill="#FFD071" transform="translate(135,33)"/>
<path d="M0 0 C0.99 0.01933594 0.99 0.01933594 2 0.0390625 C2.66 0.02617187 3.32 0.01328125 4 0 C7.17158254 1.05306452 8.2043891 2.89276589 10 5.6640625 C10.39052183 8.3993732 10.562564 10.72133743 10.53125 13.44921875 C10.5350769 14.18732285 10.53890381 14.92542694 10.54284668 15.68589783 C10.54555873 17.23991263 10.53824699 18.79397363 10.52148438 20.34790039 C10.50003034 22.72320327 10.52132189 25.09549272 10.546875 27.47070312 C10.54423219 28.98438165 10.53910818 30.49805831 10.53125 32.01171875 C10.53934692 32.71909683 10.54744385 33.42647491 10.55578613 34.1552887 C10.49063071 37.58789167 10.23083524 39.3682827 8.09179688 42.10913086 C5.82148396 43.79676192 4.79277022 44.20769953 2 44.1640625 C1.01 44.17953125 1.01 44.17953125 0 44.1953125 C-2.99742809 43.39912066 -4.09564348 42.10420203 -6 39.6640625 C-6.39838953 36.97324188 -6.5620089 34.69893349 -6.53125 32.01171875 C-6.5350769 31.27457138 -6.53890381 30.53742401 -6.54284668 29.77793884 C-6.54556302 28.22214387 -6.53822106 26.66630302 -6.52148438 25.1105957 C-6.50009767 22.7374 -6.52127574 20.36724155 -6.546875 17.99414062 C-6.54423107 16.47916002 -6.53910474 14.9641813 -6.53125 13.44921875 C-6.53934692 12.7438649 -6.54744385 12.03851105 -6.55578613 11.31178284 C-6.46060224 6.27338462 -5.19550886 1.7250713 0 0 Z " fill="#FFD070" transform="translate(254,468.3359375)"/>
<path d="M0 0 C0.66 -0.0103125 1.32 -0.020625 2 -0.03125 C4.99742809 0.76494184 6.09564348 2.05986047 8 4.5 C8.39838953 7.19082062 8.5620089 9.46512901 8.53125 12.15234375 C8.5350769 12.88949112 8.53890381 13.62663849 8.54284668 14.38612366 C8.54556302 15.94191863 8.53822106 17.49775948 8.52148438 19.0534668 C8.50009767 21.4266625 8.52127574 23.79682095 8.546875 26.16992188 C8.54423107 27.68490248 8.53910474 29.1998812 8.53125 30.71484375 C8.53934692 31.4201976 8.54744385 32.12555145 8.55578613 32.85227966 C8.46506254 37.65457954 7.42159274 40.13870844 4 43.5 C2 44.1640625 2 44.1640625 0 44.125 C-0.99 44.14433594 -0.99 44.14433594 -2 44.1640625 C-5.17158254 43.11099798 -6.2043891 41.27129661 -8 38.5 C-8.39052183 35.7646893 -8.562564 33.44272507 -8.53125 30.71484375 C-8.5350769 29.97673965 -8.53890381 29.23863556 -8.54284668 28.47816467 C-8.54555873 26.92414987 -8.53824699 25.37008887 -8.52148438 23.81616211 C-8.50003034 21.44085923 -8.52132189 19.06856978 -8.546875 16.69335938 C-8.54423219 15.17968085 -8.53910818 13.66600419 -8.53125 12.15234375 C-8.53934692 11.44496567 -8.54744385 10.73758759 -8.55578613 10.0087738 C-8.49063071 6.57617083 -8.23083524 4.7957798 -6.09179688 2.05493164 C-3.82148396 0.36730058 -2.79277022 -0.04363703 0 0 Z " fill="#FFD070" transform="translate(256,-0.5)"/>
<path d="M0 0 C1.63001953 0.01353516 1.63001953 0.01353516 3.29296875 0.02734375 C4.12441406 0.03894531 4.95585937 0.05054688 5.8125 0.0625 C5.503125 0.825625 5.19375 1.58875 4.875 2.375 C4.13356407 4.25039677 3.45021783 6.14934652 2.8125 8.0625 C2.1525 7.794375 1.4925 7.52625 0.8125 7.25 C-2.83689067 5.80544953 -6.50995433 4.43378822 -10.1875 3.0625 C-8.19010785 -0.9322843 -3.93646808 -0.04232761 0 0 Z " fill="#566876" transform="translate(252.1875,211.9375)"/>
<path d="M0 0 C4.95 0 9.9 0 15 0 C14.67 0.99 14.34 1.98 14 3 C11.8535247 2.88655624 9.70779408 2.75893655 7.5625 2.625 C6.36753906 2.55539063 5.17257813 2.48578125 3.94140625 2.4140625 C2.97074219 2.27742188 2.00007812 2.14078125 1 2 C0.67 1.34 0.34 0.68 0 0 Z " fill="#D4D9DF" transform="translate(232,106)"/>
</svg>
